<?xml version="1.0" encoding="utf-8"?>
<!-- Generator: Adobe Illustrator 22.1.0, SVG Export Plug-In . SVG Version: 6.00 Build 0)  -->
<svg version="1.1" id="Layer_1" xmlns="http://www.w3.org/2000/svg" xmlns:xlink="http://www.w3.org/1999/xlink" x="0px" y="0px"
	 viewBox="0 0 512 512" style="enable-background:new 0 0 512 512;" xml:space="preserve">
<g>
	<path d="M413,178.4L413,178.4L333.8,99c-10.9-10.9-28.6-11-39.6-0.1l0,0l-0.1,0.1l-66.3,66.4v238.3L413,218.1
		C424,207.1,424,189.4,413,178.4z M452.9,312.2h-94L195.1,476.2c-1.8,1.8-4,3.1-5.9,4.8h263.7c15.5,0,28.1-12.6,28.1-28.1V340.4
		C481,324.8,468.4,312.2,452.9,312.2z M199.8,59.1c0-15.5-12.6-28.1-28.1-28.1H59.1C43.6,31,31,43.6,31,59.1v337.5
		c0,46.6,37.8,84.4,84.4,84.4s84.4-37.8,84.4-84.4V59.1z M115.4,417.7c-11.6,0-21.1-9.4-21.1-21.1s9.4-21.1,21.1-21.1
		s21.1,9.4,21.1,21.1S127,417.7,115.4,417.7z M143.5,256H87.2v-56.2h56.2V256z M143.5,143.5H87.2V87.2h56.2V143.5z"/>
</g>
</svg>
